<svg xmlns="http://www.w3.org/2000/svg" id="Capa_1" data-name="Capa 1" width="399.21" height="217.77" viewBox="0 0 399.21 217.77"><defs><style>      .cls-1 {        fill: #383838;      }      .cls-2 {        fill: #ed7381;      }      .cls-3 {        fill: #fff;      }      .cls-4 {        fill: #d82040;      }      .cls-5 {        fill: #271c1d;      }    </style></defs><g><g><polygon class="cls-1" points="193.15 159.3 193.15 216.54 135.21 216.54 193.15 159.3"></polygon><polygon class="cls-2" points="144.38 58.47 193.42 58.86 193.42 106.85 144.38 58.47"></polygon><rect class="cls-3" x="41.69" y="151.35" width="86.96" height="39.48" transform="translate(-112.77 105.55) rotate(-45)"></rect><rect class="cls-1" x="125.99" y="177.64" width="41.95" height="30.04" transform="translate(97.93 428.03) rotate(-135)"></rect><rect class="cls-3" x="91.19" y="59.53" width="43.41" height="81.01" transform="translate(-54.4 104.34) rotate(-45)"></rect><polygon class="cls-1" points="76.02 48.15 75.9 2.17 11.38 66.69 11.48 66.79 11.37 66.91 41.03 96.57 53.72 83.88 47 77.16 76.02 48.15"></polygon><polygon class="cls-2" points="124.42 160.81 89.4 125.79 89.41 125.78 61.49 97.87 0 159.36 27.92 187.28 65.61 149.59 100.63 184.6 124.42 160.81"></polygon><polygon class="cls-2" points="81.24 0 136.02 54.78 119.52 71.28 81.06 32.82 81.24 0"></polygon><polygon class="cls-1" points="182.04 102.94 183.11 101.87 137.75 56.51 118.84 75.42 81.06 37.65 81.06 49.45 138.57 106.96 138.57 106.96 140.15 108.54 109.46 139.24 127.6 157.38 158.3 126.69 158.3 126.69 165.73 119.25 182.04 102.94 182.04 102.94"></polygon><rect class="cls-2" x="139.99" y="181.32" width="7.83" height="8.28" transform="translate(-105.72 151.29) rotate(-45)"></rect><rect class="cls-2" x="160.8" y="193.5" width="7.83" height="8.28" transform="translate(-108.24 169.57) rotate(-45)"></rect><rect class="cls-2" x="150.64" y="78" width="7.83" height="8.28" transform="translate(-29.54 128.56) rotate(-45)"></rect></g><g><path class="cls-4" d="M315.59,79.3A5.39,5.39,0,1,0,321,84.68a5.37,5.37,0,0,0-5.37-5.38" transform="translate(-16.73 -4.78)"></path><path class="cls-4" d="M241.72,48.67a5.38,5.38,0,1,0,5.36,5.38,5.37,5.37,0,0,0-5.36-5.38" transform="translate(-16.73 -4.78)"></path><rect class="cls-5" x="220.87" y="58.37" width="8.23" height="26.71"></rect><path class="cls-5" d="M292.09,81.84a5.39,5.39,0,1,1,5.37-5.38,5.37,5.37,0,0,1-5.37,5.38m10.49-14.79a12.14,12.14,0,0,0-8.85-3.91,11.91,11.91,0,0,0-7,2.29V47.93h-8.23V89.87h8.23V87.55a11.9,11.9,0,0,0,7,2.28h0a12.14,12.14,0,0,0,8.85-3.91,14,14,0,0,0,0-18.87" transform="translate(-16.73 -4.78)"></path><path class="cls-5" d="M262.22,81.84a5.39,5.39,0,1,1,5.36-5.38,5.37,5.37,0,0,1-5.36,5.38m5.37-18.68v2.29a11.83,11.83,0,0,0-7-2.31,12.1,12.1,0,0,0-8.83,3.91,14,14,0,0,0,0,18.87,12.1,12.1,0,0,0,8.83,3.91h0a11.86,11.86,0,0,0,7-2.3v2.34h8.24V63.16Z" transform="translate(-16.73 -4.78)"></path><path class="cls-5" d="M322.7,76.45H310.56V75.12l1.1,0a3.39,3.39,0,0,1-1.29-2.7,3.83,3.83,0,0,1,4.12-3.76,3.79,3.79,0,0,1,4.05,3.72,3.31,3.31,0,0,1-1.3,2.72h5.46Zm-8.21-1.24a2.59,2.59,0,1,0,0-5.16,2.6,2.6,0,1,0,0,5.16" transform="translate(-16.73 -4.78)"></path><path class="cls-5" d="M314.71,66.41a2.48,2.48,0,0,0,2.62-2.48c0-1-.43-1.65-1.63-2.4l.64-1.12a3.85,3.85,0,0,1,2.2,3.58,3.77,3.77,0,0,1-4.05,3.83c-2.44,0-4.1-1.54-4.1-3.77s1.63-3.72,4.1-3.72h.22Zm-1.12-4.67a2.31,2.31,0,0,0-2,2.29,2.35,2.35,0,0,0,2,2.29Z" transform="translate(-16.73 -4.78)"></path><path class="cls-5" d="M310.56,57.61h.84c-.82-.7-1-1-1-1.76a2.15,2.15,0,0,1,.34-1.19l1.2.62a1.31,1.31,0,0,0-.27.79,1.46,1.46,0,0,0,.71,1.24,4,4,0,0,0,1.87.3h4.1v1.33h-7.76Z" transform="translate(-16.73 -4.78)"></path><path class="cls-5" d="M315.09,52.71a3.23,3.23,0,0,0,1.46-.24,1.86,1.86,0,0,0,0-3,3.1,3.1,0,0,0-1.46-.24h-4.53V47.87h4.68a2.91,2.91,0,0,1,3.3,3.07,2.91,2.91,0,0,1-3.3,3.1h-4.68V52.71Z" transform="translate(-16.73 -4.78)"></path></g><g><g><path class="cls-1" d="M238.53,140h11.58c5.48,0,9.47,3.52,9.47,8.56s-4,8.57-9.47,8.57h-5.37v7.8h-6.21Zm11,11.47c2.14,0,3.67-1.17,3.67-2.91s-1.53-2.9-3.67-2.9h-4.79v5.81Z" transform="translate(-16.73 -4.78)"></path><path class="cls-1" d="M269,145.51v3.88h12.2V155H269v4.39h13.43v5.55H262.81V140h19.64v5.55Z" transform="translate(-16.73 -4.78)"></path><path class="cls-1" d="M301.14,164.89l-5.48-7.8h-3.05v7.8h-6.2V140H298c5.48,0,9.47,3.52,9.47,8.56a8.21,8.21,0,0,1-5.3,7.81l6,8.56Zm-8.53-13.46h4.8c2.14,0,3.66-1.17,3.66-2.91s-1.52-2.9-3.66-2.9h-4.8Z" transform="translate(-16.73 -4.78)"></path><path class="cls-1" d="M311.38,154V140h6.21v13.72c0,3.52,2.25,6,5.37,6s5.41-2.5,5.41-6V140h6.17v14c0,6.68-4.76,11.36-11.58,11.36S311.38,160.65,311.38,154Z" transform="translate(-16.73 -4.78)"></path><path class="cls-1" d="M238.64,168.27h9.11c8.57,0,14.59,5.15,14.59,12.45s-6,12.49-14.59,12.49h-9.11Zm10.05,19.31c4.25,0,7.3-2.87,7.3-6.86s-3.05-6.83-7.3-6.83h-3.84v13.69Z" transform="translate(-16.73 -4.78)"></path><path class="cls-1" d="M267.53,168.27h6.21v24.94h-6.21Z" transform="translate(-16.73 -4.78)"></path><path class="cls-1" d="M291.2,178.9h11.36v10.42a14.13,14.13,0,0,1-10.2,4.32c-7.37,0-13.54-5.92-13.54-12.92s6.17-12.89,13.54-12.89a14.22,14.22,0,0,1,10.2,4.29l-4.54,4A7.25,7.25,0,1,0,292.36,188a7.57,7.57,0,0,0,4.17-1.3v-3.12H291.2Z" transform="translate(-16.73 -4.78)"></path><path class="cls-1" d="M308.11,168.27h6.21v24.94h-6.21Z" transform="translate(-16.73 -4.78)"></path><path class="cls-1" d="M326.59,173.82H319v-5.55h21.34v5.55h-7.55v19.39h-6.2Z" transform="translate(-16.73 -4.78)"></path><path class="cls-1" d="M359.51,189.58h-9.87l-1.46,3.63h-7l9.87-24.94h7l9.87,24.94h-7Zm-1.92-4.87-3-7.66-3,7.66Z" transform="translate(-16.73 -4.78)"></path><path class="cls-1" d="M389.93,187.65v5.56H371.74V168.27h6.17v19.38Z" transform="translate(-16.73 -4.78)"></path></g><g><path class="cls-1" d="M241.85,117.58v3.89h9V125h-9v7.11H238v-18h13.83v3.47Z" transform="translate(-16.73 -4.78)"></path><path class="cls-1" d="M253.09,123.07a9.54,9.54,0,1,1,9.54,9.3A9.55,9.55,0,0,1,253.09,123.07Zm15.13,0a5.58,5.58,0,1,0-5.59,5.8A5.78,5.78,0,0,0,268.22,123.07Z" transform="translate(-16.73 -4.78)"></path><path class="cls-1" d="M285.05,132.06l-4.1-5.83H278.1v5.83h-3.84v-18h8.07c3.9,0,6.77,2.5,6.77,6.06a5.85,5.85,0,0,1-4.08,5.62l4.42,6.27Zm-6.95-9.36h3.81c1.91,0,3.22-1,3.22-2.53s-1.31-2.54-3.22-2.54H278.1Z" transform="translate(-16.73 -4.78)"></path><path class="cls-1" d="M290.51,123.07a9.54,9.54,0,1,1,9.54,9.3A9.55,9.55,0,0,1,290.51,123.07Zm15.13,0a5.58,5.58,0,1,0-5.59,5.8A5.78,5.78,0,0,0,305.64,123.07Z" transform="translate(-16.73 -4.78)"></path></g><g><path class="cls-1" d="M237.65,211.19a11.5,11.5,0,0,1,19.8-7.8L254.61,206a7.22,7.22,0,0,0-5.43-2.55,7.72,7.72,0,0,0,0,15.43,7.26,7.26,0,0,0,5.46-2.56l2.81,2.62a11.43,11.43,0,0,1-8.27,3.58A11.6,11.6,0,0,1,237.65,211.19Z" transform="translate(-16.73 -4.78)"></path><path class="cls-1" d="M258.44,211.19A11.52,11.52,0,1,1,270,222.56,11.57,11.57,0,0,1,258.44,211.19Zm18.94,0a7.45,7.45,0,1,0-7.41,7.73A7.64,7.64,0,0,0,277.38,211.19Z" transform="translate(-16.73 -4.78)"></path><path class="cls-1" d="M284.66,200.23h4l7.22,13.38,7.25-13.38h4v22h-4V207.51l-7.25,13.39-7.22-13.39v14.67h-4Z" transform="translate(-16.73 -4.78)"></path><path class="cls-1" d="M311.46,200.23h4l7.22,13.38,7.26-13.38h4v22h-4V207.51l-7.26,13.39-7.22-13.39v14.67h-4Z" transform="translate(-16.73 -4.78)"></path><path class="cls-1" d="M342,203.87v5.3h11.34v3.65H342v5.71h12.52v3.65H338v-22h16.52v3.64Z" transform="translate(-16.73 -4.78)"></path><path class="cls-1" d="M371,222.18l-5.18-7.38h-4.24v7.38h-4v-22h9.55c4.7,0,8.21,3,8.21,7.28a7.13,7.13,0,0,1-5.3,6.87l5.5,7.8Zm-9.42-11.06h5.11c2.71,0,4.6-1.37,4.6-3.61s-1.89-3.61-4.6-3.61h-5.11Z" transform="translate(-16.73 -4.78)"></path><path class="cls-1" d="M377.32,211.19a11.51,11.51,0,0,1,19.81-7.8L394.29,206a7.22,7.22,0,0,0-5.43-2.55,7.72,7.72,0,0,0,0,15.43,7.26,7.26,0,0,0,5.46-2.56l2.81,2.62a11.43,11.43,0,0,1-8.27,3.58A11.61,11.61,0,0,1,377.32,211.19Z" transform="translate(-16.73 -4.78)"></path><path class="cls-1" d="M403.42,203.87v5.3h11.34v3.65H403.42v5.71h12.52v3.65H399.43v-22h16.51v3.64Z" transform="translate(-16.73 -4.78)"></path></g></g></g></svg>